<svg width="29" height="20" viewBox="0 0 29 20" fill="none" xmlns="http://www.w3.org/2000/svg">
<g id="3 User">
<path id="3 Friends" fill-rule="evenodd" clip-rule="evenodd" d="M19.7019 5.2907C19.7019 8.2278 17.3605 10.5829 14.4403 10.5829C11.5202 10.5829 9.17871 8.2278 9.17871 5.2907C9.17871 2.35247 11.5202 -0.000366211 14.4403 -0.000366211C17.3605 -0.000366211 19.7019 2.35247 19.7019 5.2907ZM14.4404 19.9995C10.1515 19.9995 6.48926 19.3196 6.48926 16.5998C6.48926 13.8788 10.128 13.1741 14.4404 13.1741C18.7294 13.1741 22.3916 13.854 22.3916 16.575C22.3916 19.2948 18.7529 19.9995 14.4404 19.9995ZM21.9492 5.38599C21.9492 6.88325 21.5026 8.27807 20.7191 9.4376C20.6385 9.55693 20.7101 9.71791 20.8523 9.74268C21.0482 9.77645 21.2507 9.79559 21.4567 9.80122C23.5105 9.85526 25.3539 8.52573 25.8632 6.52414C26.6176 3.55101 24.4026 0.881836 21.582 0.881836C21.2754 0.881836 20.9821 0.914483 20.6967 0.973022C20.6575 0.982028 20.6161 1.00004 20.5937 1.03494C20.5669 1.07772 20.587 1.13513 20.6139 1.17228C21.4612 2.36671 21.9492 3.82344 21.9492 5.38599ZM25.3499 11.8905C26.7299 12.1618 27.6376 12.7157 28.0137 13.5206C28.3316 14.1814 28.3316 14.948 28.0137 15.6077C27.4384 16.8562 25.5838 17.257 24.863 17.3605C24.7142 17.3831 24.5944 17.2536 24.6101 17.1039C24.9783 13.6444 22.0492 12.0042 21.2915 11.6271C21.259 11.6102 21.2523 11.5843 21.2557 11.5685C21.2579 11.5573 21.2713 11.5392 21.296 11.5359C22.9357 11.5055 24.6985 11.7306 25.3499 11.8905ZM7.55003 9.80122C7.75597 9.79559 7.95744 9.77758 8.15442 9.74268C8.29657 9.71792 8.3682 9.55693 8.28761 9.4376C7.50414 8.27807 7.05756 6.88326 7.05756 5.386C7.05756 3.82344 7.54555 2.36671 8.39282 1.17228C8.41969 1.13513 8.43871 1.07772 8.41297 1.03494C8.39059 1.00117 8.34805 0.982028 8.31 0.973022C8.02347 0.914483 7.73023 0.881836 7.42355 0.881836C4.60303 0.881836 2.38803 3.55101 3.14353 6.52414C3.65279 8.52574 5.4962 9.85526 7.55003 9.80122ZM7.7491 11.5678C7.75246 11.5846 7.74575 11.6094 7.71441 11.6274C6.95555 12.0045 4.02647 13.6448 4.3947 17.1031C4.41037 17.254 4.29173 17.3823 4.14287 17.3609C3.42207 17.2573 1.56747 16.8566 0.99217 15.6081C0.673183 14.9473 0.673183 14.1818 0.99217 13.5209C1.36824 12.716 2.27483 12.1622 3.65487 11.8897C4.3074 11.731 6.0691 11.5058 7.70993 11.5362C7.73455 11.5396 7.74687 11.5576 7.7491 11.5678Z" fill="#F9AF20"/>
</g>
</svg>
