<svg width="30" height="29" viewBox="0 0 30 29" fill="none" xmlns="http://www.w3.org/2000/svg">
<g id="search">
<rect id="Rectangle" opacity="0.01" x="0.786133" y="0.735107" width="28.2513" height="28.2513" fill="#1A1A1A"/>
<path id="Shape" fill-rule="evenodd" clip-rule="evenodd" d="M21.1622 19.4517L25.1645 23.4422C25.3873 23.6632 25.5127 23.9641 25.5127 24.2779C25.5127 24.5918 25.3873 24.8927 25.1645 25.1137C24.9435 25.3366 24.6426 25.4619 24.3287 25.4619C24.0149 25.4619 23.714 25.3366 23.493 25.1137L19.5025 21.1114C17.8574 22.4027 15.8259 23.1034 13.7345 23.1008C8.53356 23.1008 4.31738 18.8846 4.31738 13.6837C4.31738 8.48278 8.53356 4.2666 13.7345 4.2666C18.9354 4.2666 23.1516 8.48278 23.1516 13.6837C23.1542 15.7751 22.4535 17.8066 21.1622 19.4517ZM13.7346 6.6208C9.83396 6.6208 6.67182 9.78293 6.67182 13.6836C6.67182 17.5843 9.83396 20.7465 13.7346 20.7465C17.6353 20.7465 20.7975 17.5843 20.7975 13.6836C20.7975 9.78293 17.6353 6.6208 13.7346 6.6208Z" fill="#F9AF20"/>
</g>
</svg>
