<svg width="18" height="19" viewBox="0 0 18 19" fill="none" xmlns="http://www.w3.org/2000/svg">
<g id="Time Circle">
<path id="Time Circle_2" fill-rule="evenodd" clip-rule="evenodd" d="M8.99805 18.2504C4.16805 18.2504 0.248047 14.3391 0.248047 9.50037C0.248047 4.67037 4.16805 0.750366 8.99805 0.750366C13.8368 0.750366 17.748 4.67037 17.748 9.50037C17.748 14.3391 13.8368 18.2504 8.99805 18.2504ZM11.7889 12.7465C11.8939 12.8077 12.0077 12.8427 12.1302 12.8427C12.3489 12.8427 12.5677 12.729 12.6902 12.519C12.8739 12.2127 12.7777 11.8102 12.4627 11.6177L9.34766 9.76271V5.72021C9.34766 5.35272 9.05016 5.06396 8.69141 5.06396C8.33266 5.06396 8.03516 5.35272 8.03516 5.72021V10.139C8.03516 10.3665 8.15766 10.5765 8.35891 10.699L11.7889 12.7465Z" fill="#F9AF20"/>
</g>
</svg>
